<?xml version="1.0" standalone="no"?>
<!DOCTYPE svg PUBLIC "-//W3C//DTD SVG 20010904//EN"
 "http://www.w3.org/TR/2001/REC-SVG-20010904/DTD/svg10.dtd">
<svg version="1.0" xmlns="http://www.w3.org/2000/svg"
 width="500.000000pt" height="500.000000pt" viewBox="0 0 500.000000 500.000000"
 preserveAspectRatio="xMidYMid meet">
<metadata>
Created by potrace 1.11, written by Peter Selinger 2001-2013
</metadata>
<g transform="translate(0.000000,500.000000) scale(0.100000,-0.100000)"
fill="#000000" stroke="none">
<path d="M1043 4610 c-68 -41 -63 135 -63 -2117 0 -2004 0 -2039 20 -2070 27
-45 73 -66 129 -60 64 7 107 55 116 128 3 30 5 908 3 1952 -3 1891 -3 1897 17
1897 30 0 258 -55 365 -88 552 -170 977 -462 1317 -905 457 -596 729 -1494
793 -2612 17 -292 17 -292 54 -332 61 -67 170 -52 212 29 16 30 16 50 5 243
-70 1230 -349 2163 -840 2814 -47 62 -93 123 -102 135 -17 21 -9 28 448 400
494 403 501 410 490 483 -8 48 -42 90 -83 103 -63 21 -98 7 -203 -77 -53 -44
-157 -128 -231 -189 -74 -60 -244 -199 -378 -308 l-242 -198 -91 79 c-424 366
-915 591 -1515 692 -150 26 -181 26 -221 1z"/>
</g>
</svg>
